<svg version="1.1" id="Layer_1" xmlns="http://www.w3.org/2000/svg" x="0" y="0" viewBox="0 0 50 50" xml:space="preserve"><style>.st0{fill:#fff}</style><path class="st0" d="M32.9 39.1c0 .6.4 1 1 1H40c.6 0 1-.4 1-1v-28c0-.6-.4-1-1-1h-6.1c-.6 0-1 .4-1 1s.4 1 1 1H39v26h-5.1c-.6 0-1 .5-1 1z"/><path class="st0" d="M9 25.1c0 .6.4 1 1 1h21.5l-6.1 6.3c-.4.4-.4 1 0 1.4.4.4 1 .4 1.4 0l7.8-8 .1-.1c0-.1.1-.1.1-.2s.1-.2.1-.4c0-.1 0-.3-.1-.4 0-.1-.1-.1-.1-.2 0 0 0-.1-.1-.1l-7.8-8c-.4-.4-1-.4-1.4 0-.4.4-.4 1 0 1.4l6.1 6.3H10c-.6 0-1 .5-1 1z"/></svg>