<svg id="Слой_1" data-name="Слой 1" xmlns="http://www.w3.org/2000/svg" viewBox="0 0 133.3 29.8"><defs><style>.cls-1{fill:#06ce3f}.cls-4{letter-spacing:-.01em}</style></defs><path class="cls-1" d="M1.5 16.5l9.7 11.4a5 5 0 0 0 4 1.8h22.7V-.1H15.1a5.53 5.53 0 0 0-4 1.8L1.5 13.2a2.57 2.57 0 0 0 0 3.3z" transform="translate(-.9 .1)"/><path class="cls-1" d="M130.7 29.7a3.4 3.4 0 0 0 3.5-3.4v-23a3.46 3.46 0 0 0-3.5-3.4h-94v29.8z" transform="translate(-.9 .1)"/><path fill="none" stroke="#fff" stroke-linecap="round" stroke-linejoin="round" stroke-width="2.71" d="M9.2 19.8l-5.1-4.9L9.2 10"/><text transform="translate(13.98 19.48)" style="isolation:isolate" font-size="13.09" fill="#fff" font-family="Arial-BoldMT,Arial" font-weight="700">В список <tspan class="cls-4" x="61.81" y="0">т</tspan><tspan x="68.05" y="0">о</tspan><tspan class="cls-4" x="76.04" y="0">в</tspan><tspan x="83.92" y="0">аров</tspan></text></svg>