<svg id="Слой_1" data-name="Слой 1" xmlns="http://www.w3.org/2000/svg" viewBox="0 0 131.3 29.8"><defs><style>.cls-1{fill:#06ce3f}</style></defs><path class="cls-1" d="M1.6 16.6L11.3 28a5.18 5.18 0 004 1.8H38V0H15.2a5.53 5.53 0 00-4 1.8L1.6 13.3a2.57 2.57 0 000 3.3z" transform="translate(-1)"/><path class="cls-1" d="M128.8 29.8a3.37 3.37 0 003.5-3.3V3.4a3.46 3.46 0 00-3.5-3.4h-94v29.8z" transform="translate(-1)"/><path d="M22.62 10.17h3.79a11.38 11.38 0 011.67.09 2.39 2.39 0 011 .39 2.53 2.53 0 01.73.79 2.25 2.25 0 01-1 3.16 2.56 2.56 0 011.33.86 2.29 2.29 0 01.46 1.43 2.84 2.84 0 01-.3 1.26 2.51 2.51 0 01-.82 1 2.58 2.58 0 01-1.28.45c-.32 0-1.09.06-2.31.07h-3.27zm1.91 1.57v2.19h2.64a1.28 1.28 0 00.78-.34 1 1 0 00.28-.74 1 1 0 00-.25-.71 1.06 1.06 0 00-.72-.33h-1.63zm0 3.77V18h1.77a8.31 8.31 0 001.31 0 1.11 1.11 0 001-1.18 1.22 1.22 0 00-.21-.72 1.24 1.24 0 00-.6-.44 6.55 6.55 0 00-1.69-.13zm17.28-.7l-1.81.32a1.31 1.31 0 00-.41-.81 1.24 1.24 0 00-.83-.27 1.36 1.36 0 00-1.08.47 2.38 2.38 0 00-.4 1.56 2.75 2.75 0 00.41 1.73 1.35 1.35 0 001.1.5 1.24 1.24 0 00.84-.29 1.77 1.77 0 00.47-1l1.78.3a3.18 3.18 0 01-1.06 1.86 3.36 3.36 0 01-2.12.62 3.13 3.13 0 01-2.4-.95 3.71 3.71 0 01-.89-2.63 3.67 3.67 0 01.9-2.64 3.19 3.19 0 012.43-1 3.33 3.33 0 012 .54 3 3 0 011.07 1.69zm1.31-2.03h6.09v6.86h-1.82v-5.4h-2.46v5.4h-1.81zm8.01 0h1.75v4.3l2.79-4.3h1.78v6.86H55.7v-4.39l-2.82 4.39h-1.75zm14.16 2.03l-1.79.32a1.31 1.31 0 00-.41-.81 1.24 1.24 0 00-.83-.27 1.36 1.36 0 00-1.08.47 2.37 2.37 0 00-.41 1.56 2.81 2.81 0 00.41 1.73 1.39 1.39 0 001.11.5 1.24 1.24 0 00.84-.29 1.77 1.77 0 00.47-1l1.78.3a3.19 3.19 0 01-1.07 1.86 3.33 3.33 0 01-2.11.62 3.13 3.13 0 01-2.4-.95 3.71 3.71 0 01-.89-2.63 3.67 3.67 0 01.9-2.64 3.16 3.16 0 012.42-1 3.34 3.34 0 012 .54 3 3 0 011.06 1.69zm.96 1.3a3.67 3.67 0 01.44-1.75A3.08 3.08 0 0168 13.07a3.76 3.76 0 011.83-.45 3.43 3.43 0 012.55 1 3.52 3.52 0 011 2.56 3.52 3.52 0 01-1 2.58 3.4 3.4 0 01-2.53 1 4 4 0 01-1.8-.42 3 3 0 01-1.3-1.25 4.15 4.15 0 01-.5-1.98zm1.86.1a2.28 2.28 0 00.48 1.56 1.59 1.59 0 002.39 0 2.31 2.31 0 00.48-1.58 2.28 2.28 0 00-.46-1.55 1.59 1.59 0 00-2.39 0 2.32 2.32 0 00-.5 1.57zm6.56-3.43h1.81v2.8a.89.89 0 00.64-.28 3.54 3.54 0 00.46-1 2.57 2.57 0 01.76-1.3 1.84 1.84 0 011.08-.29h.72V14a2 2 0 00-.92.13 1.92 1.92 0 00-.43.85 1.74 1.74 0 01-.92 1.17 2.48 2.48 0 011.46 1.49.83.83 0 00.07.13l1 1.9h-2l-.9-2a2.7 2.7 0 00-.48-.77 1 1 0 00-.61-.17v2.93h-1.74zm9.51 0h1.93l1.64 4.87 1.61-4.87h1.88l-2.43 6.6-.43 1.19a5.26 5.26 0 01-.45.92 2 2 0 01-.5.51 2 2 0 01-.69.31 3.77 3.77 0 01-.93.11 5.07 5.07 0 01-1-.11l-.16-1.42a3.73 3.73 0 00.77.08 1.15 1.15 0 00.94-.37 2.66 2.66 0 00.46-.94zm13.87 2.03l-1.79.32a1.31 1.31 0 00-.41-.81 1.24 1.24 0 00-.83-.27 1.36 1.36 0 00-1.08.47 2.38 2.38 0 00-.4 1.56 2.75 2.75 0 00.46 1.73 1.35 1.35 0 001.1.5 1.24 1.24 0 00.84-.29 1.77 1.77 0 00.47-1l1.78.3a3.18 3.18 0 01-1.06 1.86 3.36 3.36 0 01-2.12.62 3.13 3.13 0 01-2.4-.95 3.71 3.71 0 01-.89-2.63 3.67 3.67 0 01.9-2.64 3.19 3.19 0 012.43-1 3.31 3.31 0 012 .54 3 3 0 011 1.69zm1.87-2.03H106v6.86h-1.81v-5.39h-2.48v3.08a3.59 3.59 0 01-.27 1.65 1.33 1.33 0 01-.6.62 2.73 2.73 0 01-1.06.15 8.23 8.23 0 01-1.14-.11V18.3h.3a4 4 0 00.44 0q.38 0 .45-.24a5.59 5.59 0 00.09-1.35zm6.88 0h1.93l1.64 4.87 1.6-4.87h1.88l-2.42 6.6-.43 1.19a5.18 5.18 0 01-.46.92 1.87 1.87 0 01-.5.51 2 2 0 01-.69.31 3.71 3.71 0 01-.93.11 5 5 0 01-1-.11l-.16-1.42a3.64 3.64 0 00.74.11 1.13 1.13 0 00.94-.37 2.67 2.67 0 00.47-.94zm8.14 0h4.63v1.46h-2.81v5.4h-1.82z" transform="translate(-1)" fill="#fff"/></svg>