<svg xmlns="http://www.w3.org/2000/svg" viewBox="0 0 206.15 16.45"><path fill="#fff" d="M0 16.45V0h3l3.55 11.65q.5 1.62.72 2.43c.17-.59.43-1.47.8-2.63L11.67 0h2.67v16.45h-1.9V2.68L8.06 16.45h-1.8l-4.34-14v14zm15.9 0L21.67 0h2.14l6.15 16.45H27.7l-1.75-5h-6.29l-1.65 5zm4.34-6.75h5.09l-1.57-4.56c-.48-1.38-.83-2.52-1.06-3.41a25.41 25.41 0 0 1-.81 3.1zm11.34 6.75V0h6.67a8.23 8.23 0 0 1 3 .44 3.42 3.42 0 0 1 1.67 1.57 5 5 0 0 1 .63 2.48 4.36 4.36 0 0 1-1 3 5 5 0 0 1-3.2 1.53 4.77 4.77 0 0 1 1.2.82 10.81 10.81 0 0 1 1.65 2.18l2.62 4.48h-2.5l-2-3.42c-.58-1-1.06-1.74-1.44-2.27a4.64 4.64 0 0 0-1-1.1 3 3 0 0 0-.9-.44 5.91 5.91 0 0 0-1.11-.07h-2.3v7.3zm2-9.19h4.28a5.78 5.78 0 0 0 2.13-.31 2.28 2.28 0 0 0 1.17-1 2.8 2.8 0 0 0 .4-1.47 2.55 2.55 0 0 0-.78-1.92 3.39 3.39 0 0 0-2.45-.73h-4.76zm13.05 9.19V0h2v8.16L56.09 0h2.69l-6.34 6.67 6.58 9.78h-2.58l-5.36-8.33-2.46 2.63v5.7zm14.13 0V0h10.87v1.94h-8.88v5h8.31v1.97h-8.31v5.6h9.23v1.94zm17.79 0V1.94h-5V0h11.96v1.94h-5v14.51zm6.89-4.94v-2h5.66v2zm7.94 4.94V0h5.67a12.08 12.08 0 0 1 2.29.16 4.25 4.25 0 0 1 1.85.77 4 4 0 0 1 1.25 1.58 5.51 5.51 0 0 1 .45 2.25 5.35 5.35 0 0 1-1.22 3.55c-.81 1-2.28 1.45-4.41 1.45h-3.89v6.69zm2-8.63h3.88a3.88 3.88 0 0 0 2.74-.78 3 3 0 0 0 .8-2.21 3.17 3.17 0 0 0-.48-1.77 2.17 2.17 0 0 0-1.25-1 7.6 7.6 0 0 0-1.86-.15h-3.84zm8.8 8.63L109.95 0h2.14l6.15 16.45h-2.26l-1.76-5h-6.28l-1.65 5zm4.33-6.75h5.1l-1.57-4.56c-.48-1.38-.84-2.52-1.07-3.41a22.29 22.29 0 0 1-.81 3.1zm11.35 6.75V0h6.66a8.32 8.32 0 0 1 3.06.44 3.46 3.46 0 0 1 1.67 1.57 5 5 0 0 1 .62 2.48 4.35 4.35 0 0 1-1 3 5.07 5.07 0 0 1-3.2 1.53 4.77 4.77 0 0 1 1.2.82 11.19 11.19 0 0 1 1.65 2.18l2.62 4.48h-2.51l-2-3.42c-.58-1-1-1.74-1.43-2.27a4.86 4.86 0 0 0-1-1.1 3 3 0 0 0-.91-.44 5.72 5.72 0 0 0-1.1-.07h-2.31v7.3zm2-9.19h4.27a5.87 5.87 0 0 0 2.14-.31 2.22 2.22 0 0 0 1.16-1 2.8 2.8 0 0 0 .4-1.47 2.54 2.54 0 0 0-.77-1.92 3.41 3.41 0 0 0-2.45-.73h-4.76zm13.05 9.19V0h2v8.16L144.36 0h2.7l-6.31 6.67 6.58 9.78h-2.62l-5.35-8.33-2.46 2.63v5.7zm14.13 0V0h10.86v1.94h-8.88v5h8.32v1.97h-8.32v5.6h9.23v1.94zm17.78 0V1.94h-4.95V0h11.91v1.94h-5v14.51zm6.96 0v-2.3h2.11v2.3zm5.58 0V0h6.66a8.32 8.32 0 0 1 3.06.44 3.46 3.46 0 0 1 1.67 1.57 5 5 0 0 1 .62 2.48 4.35 4.35 0 0 1-1 3 5.07 5.07 0 0 1-3.2 1.53 4.77 4.77 0 0 1 1.2.82 11.19 11.19 0 0 1 1.65 2.18l2.62 4.48h-2.51l-2-3.42c-.58-1-1-1.74-1.43-2.27a4.86 4.86 0 0 0-1-1.1 3 3 0 0 0-.91-.44 5.72 5.72 0 0 0-1.1-.07h-2.31v7.3zm2-9.19h4.27a5.87 5.87 0 0 0 2.14-.31 2.22 2.22 0 0 0 1.16-1 2.8 2.8 0 0 0 .4-1.47 2.54 2.54 0 0 0-.77-1.92 3.41 3.41 0 0 0-2.45-.73h-4.76zM204.19 0h1.95v9.35a12 12 0 0 1-.5 3.87 4.66 4.66 0 0 1-1.82 2.33 6 6 0 0 1-3.45.9 6.61 6.61 0 0 1-3.4-.78 4.31 4.31 0 0 1-1.88-2.27 11.62 11.62 0 0 1-.57-4.05V0h2v9.34a9.84 9.84 0 0 0 .36 3.1 2.82 2.82 0 0 0 1.23 1.54 4 4 0 0 0 2.13.54 3.86 3.86 0 0 0 3.07-1.07c.61-.71.92-2.09.92-4.11z"/></svg>