<svg id="Слой_1" data-name="Слой 1" xmlns="http://www.w3.org/2000/svg" viewBox="0 0 9.16 9.29"><defs><style>.cls-1{fill:#231f20}</style></defs><path class="cls-1" d="M9.51 8.52l-1.78-1.8a4.09 4.09 0 0 0 .8-2.43 4 4 0 0 0-4-4.07 4 4 0 0 0-4 4.07 4 4 0 0 0 4 4.06 3.94 3.94 0 0 0 2.4-.81l1.77 1.8a.56.56 0 0 0 .81 0 .59.59 0 0 0 0-.82zm-5-1.33a2.91 2.91 0 1 1 2.86-2.9 2.89 2.89 0 0 1-2.85 2.9z" transform="translate(-.51 -.22)"/><path class="cls-1" d="M4.87 1.54v2.4h2.26v.61H4.87V7h-.64V4.55H2v-.61h2.23v-2.4z" transform="translate(-.51 -.22)"/></svg>